<svg xmlns="http://www.w3.org/2000/svg" viewBox="0 0 500 250"><defs><style>.cls-1,.cls-2{fill:#fff;}.cls-1{opacity:0;}.cls-3{fill:#f5f4f5;}</style></defs><title>full-whiteAsset 3logo-icon</title><g id="Layer_2" data-name="Layer 2"><g id="Layer_1-2" data-name="Layer 1"><rect class="cls-1" width="500" height="250"/><path class="cls-2" d="M463,97.68V212a5.45,5.45,0,0,1-5.46,5.46H443.3a5.45,5.45,0,0,1-5.46-5.46V97.68a5.45,5.45,0,0,1,5.46-5.46h14.25A5.45,5.45,0,0,1,463,97.68Z"/><path class="cls-3" d="M199.65,131.74l69.81-39.91-64.6.47a16.76,16.76,0,0,0-13,6.16l-14.43,17.68v37.11l30.24,55.23a17.24,17.24,0,0,0,15.11,9H258a5.14,5.14,0,0,0,3.85-8.56l-63.18-71.13A3.92,3.92,0,0,1,199.65,131.74Z"/><path class="cls-3" d="M144.28,169.28a7,7,0,0,0-7.71,2.06c-1.8,2.13-3.08,3.61-3.83,4.42a45.42,45.42,0,0,1-33.16,13.63q-13.1,0-20.26-3.2A3.81,3.81,0,0,1,78.16,180l68.08-68.08,4.15-4.19v-18H123.07a4.69,4.69,0,0,1-3.84-7.38l6.82-9.73A75.1,75.1,0,0,0,99.58,68Q68.77,68,46.89,89.91T25,142.73q0,30.93,21.89,52.82t52.69,21.89q26.25,0,46-15.77a12.69,12.69,0,0,0,4.83-9.91V177.81a9,9,0,0,0-6-8.49ZM52.92,142.73A46.74,46.74,0,0,1,99.58,95.94q10.23,0,15.79,1.45a3.25,3.25,0,0,1,1.44,5.44L59.4,160.36a2.92,2.92,0,0,1-4.87-1.29Q52.93,153.45,52.92,142.73Z"/><path class="cls-3" d="M269.46,180.75V118a.47.47,0,0,1,.48-.48h12.85a9.18,9.18,0,0,0,9.17-9.17v-6.84a9.18,9.18,0,0,0-9.17-9.17H269.94a.47.47,0,0,1-.48-.47V54.53a9.17,9.17,0,0,0-9.17-9.17h-6.84a9.17,9.17,0,0,0-9.16,9.17v37.3a.48.48,0,0,1-.48.47H222.27a.48.48,0,0,0-.48.48V117a.48.48,0,0,0,.48.48h21.54a.48.48,0,0,1,.48.48v99a.47.47,0,0,0,.47.48h17.45a7.24,7.24,0,0,0,7.25-7.25v-3.28a.44.44,0,0,0-.08-.25,24,24,0,0,1,0-25.66A.44.44,0,0,0,269.46,180.75Z"/><path class="cls-2" d="M398.78,94.94h0a2.63,2.63,0,0,1-4.36,2q-16.71-14.59-38-14.6-28.71,0-48.95,20.25t-20.25,49a72.41,72.41,0,0,0,1.91,16.81,2.6,2.6,0,0,0,2.3,2A23,23,0,0,1,306,177.06a22.53,22.53,0,0,1,7,16.77,23.82,23.82,0,0,1-1.4,8.25,2.6,2.6,0,0,0,.77,2.88c12.49,10.27,27.17,12.48,44,12.48,14.17,0,26.83-2.34,38-11.54a2.63,2.63,0,0,1,4.34,2v7a2.64,2.64,0,0,0,2.63,2.64h20a2.64,2.64,0,0,0,2.64-2.64V103.34a11,11,0,0,0-11-11H401.41A2.64,2.64,0,0,0,398.78,94.94Zm0,65.55a3.31,3.31,0,0,1,0,.55q-2.25,11.64-11.63,21.13A43.42,43.42,0,0,1,313,151.53a43.42,43.42,0,0,1,74.06-30.65q9.38,9.5,11.63,21.13a3.41,3.41,0,0,1,0,.55Z"/><path class="cls-3" d="M402.29,75.6a13.61,13.61,0,0,0-.87,4.92c0,.23,0,.46,0,.69h61.79c0-.16.1-.31.14-.46a13.3,13.3,0,0,0,2.82-2.11,12,12,0,0,0,3.73-8.94,13.79,13.79,0,0,0-.08-1.45,11.59,11.59,0,0,0,1.89-1.51,11,11,0,0,0,0-15.64,10.71,10.71,0,0,0-5.91-3,15.27,15.27,0,0,0-3.92-6.18,15.56,15.56,0,0,0-11.26-4.59,15.25,15.25,0,0,0-9.23,3,17.81,17.81,0,0,0-2.36-2.83,17.35,17.35,0,0,0-24.35,0,16.28,16.28,0,0,0-5,10.55c-.5,0-1-.07-1.54-.07A14,14,0,0,0,398,52.09a14.45,14.45,0,0,0,0,20.53A14.66,14.66,0,0,0,402.29,75.6Z"/><circle class="cls-2" cx="289.43" cy="193.73" r="16.85"/><path class="cls-3" d="M165.25,217.44h0a.64.64,0,0,1-.64-.64V45.36h0a12.85,12.85,0,0,1,12.85,12.85v147A12.21,12.21,0,0,1,165.25,217.44Z"/></g></g></svg>